<?xml version="1.0" encoding="utf-8"?>
<!-- Generator: Adobe Illustrator 16.0.3, SVG Export Plug-In . SVG Version: 6.00 Build 0)  -->
<!DOCTYPE svg PUBLIC "-//W3C//DTD SVG 1.1//EN" "http://www.w3.org/Graphics/SVG/1.1/DTD/svg11.dtd">
<svg version="1.1" id="Livello_1" xmlns="http://www.w3.org/2000/svg" xmlns:xlink="http://www.w3.org/1999/xlink" x="0px" y="0px"
	 width="389px" height="403px" viewBox="0 0 389 403" enable-background="new 0 0 389 403" xml:space="preserve">
<g>
	<path fill="#DBDCDB" d="M10,297.078c0,37.441,62,65.684,144.238,65.684c7.84,0,15.684-0.242,23.282-0.801
		c5.359-0.402,9.441-5.039,9.121-10.481c-0.403-5.44-5.039-9.44-10.481-9.121c-7.199,0.481-14.558,0.802-21.922,0.802
		c-73.437,0-124.636-24.32-124.636-46.082v-40.797c24.558,19.277,70.16,31.68,124.636,31.68c4.961,0,9.922-0.082,14.883-0.32
		c5.438-0.243,9.598-4.801,9.359-10.243c-0.242-5.437-4.8-9.597-10.242-9.358c-4.636,0.242-9.359,0.319-14,0.319
		c-73.437,0-124.636-24.319-124.636-46.077v-40.723c24.558,19.281,70.16,31.679,124.636,31.679
		c82.243,0,144.243-28.237,144.243-65.679V72.68c0-37.442-62-65.68-144.243-65.68C72,7,10,35.238,10,72.68V297.078z
		 M154.238,193.559c-73.437,0-124.636-24.321-124.636-46.079v-40.8c24.558,19.281,70.16,31.679,124.636,31.679
		c54.481,0,100.083-12.398,124.641-31.679v40.8C278.961,169.32,227.762,193.559,154.238,193.559L154.238,193.559z M154.238,26.52
		c73.442,0,124.641,24.32,124.641,46.082c0,21.757-51.199,46.078-124.641,46.078c-73.437,0-124.636-24.239-124.636-46
		C29.602,50.922,80.801,26.52,154.238,26.52L154.238,26.52z M154.238,26.52"/>
	<path fill="#DBDCDB" d="M267.602,299"/>
</g>
<g>
	<path fill="none" d="M290.326,272.49c-14.831,0-26.9,12.067-26.9,26.9c0,14.83,12.069,26.901,26.9,26.901
		c14.832,0,26.901-12.071,26.901-26.901C317.228,284.558,305.158,272.49,290.326,272.49z"/>
	<path fill="none" d="M344.685,268.006c-4.986-8.645-4.502-19.118,0.537-27.297c-9.091-8.606-19.728-14.865-31.329-18.453
		c-4.483,8.627-13.397,14.384-23.566,14.384c-10.168,0-19.082-5.739-23.564-14.384c-11.603,3.588-22.238,9.847-31.33,18.453
		c5.057,8.179,5.541,18.652,0.536,27.297c-4.984,8.661-14.184,13.826-23.958,13.163c-1.597,6.35-2.386,12.339-2.386,18.222
		c0,5.882,0.789,11.871,2.386,18.221c9.756-0.611,18.955,4.519,23.958,13.163c5.005,8.645,4.521,19.116-0.536,27.295
		c9.092,8.608,19.728,14.886,31.349,18.455c4.464-8.608,13.378-14.365,23.546-14.365c10.169,0,19.083,5.757,23.566,14.383
		c11.602-3.569,22.255-9.847,31.348-18.455c-5.058-8.177-5.542-18.65-0.556-27.295c4.985-8.645,14.042-13.808,23.959-13.163
		c1.598-6.367,2.386-12.375,2.386-18.238c0-5.864-0.788-11.872-2.386-18.222C359.104,281.814,349.67,276.667,344.685,268.006z
		 M290.326,344.225c-24.712,0-44.835-20.104-44.835-44.834c0-24.731,20.123-44.835,44.835-44.835
		c24.714,0,44.836,20.104,44.836,44.835C335.162,324.121,315.04,344.225,290.326,344.225z"/>
	<g>
		<path fill="#DBDCDB" d="M383.422,267.897c-0.808-2.367-2.546-4.285-4.825-5.308c-2.277-1.021-4.876-1.058-7.174-0.072
			c-4.303,1.758-8.984,0.359-11.189-3.478c-2.206-3.839-1.113-8.645,2.6-11.442c2.01-1.508,3.282-3.767,3.533-6.26
			s-0.537-4.968-2.187-6.833c-14.652-16.624-33.483-27.637-54.502-31.815c-2.476-0.536-5.059,0.091-7.085,1.58
			c-2.044,1.505-3.334,3.782-3.604,6.312c-0.466,4.626-4.196,8.107-8.645,8.107s-8.179-3.481-8.645-8.107
			c-0.27-2.529-1.578-4.807-3.604-6.312c-2.044-1.489-4.627-2.116-7.083-1.58c-21.02,4.179-39.867,15.173-54.502,31.815
			c-1.65,1.883-2.438,4.34-2.188,6.833s1.542,4.752,3.533,6.26c3.729,2.813,4.824,7.604,2.6,11.442
			c-2.206,3.837-6.923,5.235-11.19,3.478c-2.313-0.985-4.914-0.949-7.173,0.072c-2.279,1.022-4.019,2.94-4.825,5.308
			c-3.748,11.049-5.578,21.359-5.578,31.493c0,10.133,1.83,20.426,5.578,31.474c0.807,2.368,2.546,4.286,4.825,5.309
			c2.259,1.039,4.877,1.058,7.173,0.072c4.304-1.776,8.967-0.323,11.19,3.478c2.206,3.839,1.112,8.645-2.6,11.442
			c-2.01,1.507-3.282,3.767-3.533,6.259c-0.251,2.494,0.537,4.969,2.188,6.834c14.635,16.642,33.482,27.652,54.502,31.814
			c2.475,0.52,5.039-0.09,7.065-1.579c2.044-1.506,3.336-3.783,3.604-6.312c0.469-4.629,4.197-8.107,8.645-8.107
			c4.448,0,8.179,3.479,8.645,8.107c0.27,2.528,1.578,4.806,3.604,6.312c1.56,1.149,3.427,1.759,5.326,1.759
			c0.575,0,1.166-0.055,1.776-0.163c21.019-4.159,39.867-15.153,54.502-31.813c1.649-1.883,2.438-4.341,2.187-6.833
			c-0.251-2.493-1.542-4.754-3.533-6.26c-3.713-2.815-4.806-7.604-2.6-11.44c2.224-3.803,6.94-5.237,11.189-3.48
			c2.298,0.969,4.896,0.95,7.174-0.071c2.279-1.022,4.018-2.941,4.825-5.308c3.749-11.049,5.578-21.344,5.578-31.492
			C389,289.239,387.171,278.946,383.422,267.897z M368.644,317.629c-9.917-0.645-18.974,4.519-23.959,13.163
			c-4.986,8.645-4.502,19.118,0.556,27.295c-9.093,8.608-19.746,14.886-31.348,18.455c-4.483-8.626-13.397-14.383-23.566-14.383
			c-10.168,0-19.082,5.757-23.546,14.365c-11.621-3.569-22.257-9.847-31.349-18.455c5.057-8.179,5.541-18.65,0.536-27.295
			c-5.003-8.645-14.202-13.774-23.958-13.163c-1.597-6.35-2.386-12.339-2.386-18.221c0-5.883,0.789-11.872,2.386-18.222
			c9.774,0.663,18.974-4.502,23.958-13.163c5.005-8.645,4.521-19.118-0.536-27.297c9.092-8.606,19.728-14.865,31.33-18.453
			c4.482,8.645,13.396,14.384,23.564,14.384c10.169,0,19.083-5.757,23.566-14.384c11.602,3.588,22.238,9.847,31.329,18.453
			c-5.039,8.179-5.523,18.652-0.537,27.297c4.985,8.661,14.42,13.809,23.959,13.163c1.598,6.35,2.386,12.357,2.386,18.222
			C371.029,305.254,370.241,311.262,368.644,317.629z"/>
		<path fill="#DBDCDB" d="M290.326,254.556c-24.712,0-44.835,20.104-44.835,44.835c0,24.73,20.123,44.834,44.835,44.834
			c24.714,0,44.836-20.104,44.836-44.834C335.162,274.659,315.04,254.556,290.326,254.556z M290.326,326.292
			c-14.831,0-26.9-12.071-26.9-26.901c0-14.833,12.069-26.9,26.9-26.9c14.832,0,26.901,12.067,26.901,26.9
			C317.228,314.221,305.158,326.292,290.326,326.292z"/>
	</g>
</g>
</svg>
