<?xml version="1.0" encoding="utf-8"?>
<!-- Generator: Adobe Illustrator 16.0.3, SVG Export Plug-In . SVG Version: 6.00 Build 0)  -->
<!DOCTYPE svg PUBLIC "-//W3C//DTD SVG 1.1//EN" "http://www.w3.org/Graphics/SVG/1.1/DTD/svg11.dtd">
<svg version="1.1" xmlns="http://www.w3.org/2000/svg" xmlns:xlink="http://www.w3.org/1999/xlink" x="0px" y="0px" width="212px"
	 height="156px" viewBox="189.138 334.446 212 156" enable-background="new 189.138 334.446 212 156" xml:space="preserve">
<g id="Layer_1">
</g>
<g id="Livello_2">
</g>
<g id="Livello_4">
</g>
<g id="Livello_3">
	<g>
		<g>
			<g>
				<g>
					<path fill="#FFFFFF" d="M213.842,471.467c3.623,0,6.585-1.438,8.887-4.304l4.725,4.869c-3.75,4.222-8.17,6.333-13.257,6.333
						c-5.09,0-9.282-1.605-12.573-4.82c-3.293-3.218-4.939-7.271-4.939-12.172s1.678-8.987,5.035-12.264
						c3.355-3.281,7.459-4.918,12.311-4.918c5.419,0,9.956,2.064,13.612,6.193l-4.584,5.197c-2.333-2.897-5.231-4.346-8.696-4.346
						c-2.774,0-5.146,0.905-7.114,2.715c-1.969,1.815-2.954,4.255-2.954,7.33c0,3.07,0.93,5.535,2.788,7.396
						C208.942,470.536,211.195,471.467,213.842,471.467z"/>
					<path fill="#FFFFFF" d="M233.266,477.983v-33.031h7.375v26.469h14.083v6.563H233.266z"/>
					<path fill="#FFFFFF" d="M283.652,477.983l-3.072-7.134h-13.85l-3.072,7.134h-7.847l14.275-33.031h7.134l14.275,33.031H283.652z
						 M273.677,454.781l-4.157,9.595h8.268L273.677,454.781z"/>
					<path fill="#FFFFFF" d="M302.818,451.542c-0.711,0.586-1.064,1.355-1.064,2.314c0,0.963,0.431,1.727,1.297,2.295
						c0.867,0.566,2.87,1.238,6.005,2.008c3.138,0.771,5.57,1.931,7.304,3.471c1.729,1.547,2.596,3.801,2.596,6.764
						c0,2.962-1.107,5.365-3.327,7.207c-2.223,1.842-5.148,2.766-8.773,2.766c-5.228,0-9.94-1.938-14.129-5.816l4.393-5.386
						c3.56,3.119,6.855,4.681,9.878,4.681c1.354,0,2.419-0.293,3.193-0.875c0.771-0.586,1.156-1.373,1.156-2.364
						c0-0.995-0.41-1.782-1.228-2.364c-0.819-0.585-2.445-1.175-4.869-1.773c-3.844-0.912-6.654-2.103-8.437-3.566
						c-1.78-1.466-2.668-3.766-2.668-6.898c0-3.137,1.124-5.556,3.379-7.258c2.251-1.701,5.066-2.553,8.432-2.553
						c2.207,0,4.415,0.379,6.619,1.136c2.207,0.755,4.13,1.827,5.766,3.211l-3.731,5.391c-2.866-2.175-5.83-3.259-8.886-3.259
						C304.494,450.67,303.525,450.958,302.818,451.542z"/>
					<path fill="#FFFFFF" d="M338.95,451.33v26.653h-7.373V451.33h-9.361v-6.378h26.092v6.378H338.95z"/>
					<path fill="#FFFFFF" d="M353.693,444.952h7.373v33.031h-7.373V444.952z"/>
					<path fill="#FFFFFF" d="M387.775,444.952h8.881l-10.303,15.925l11.154,17.106h-8.979l-7.042-10.866l-6.995,10.866h-8.887
						l11.108-16.918l-10.354-16.113h8.843l6.284,9.779L387.775,444.952z"/>
				</g>
			</g>
			<g>
				<polygon fill="#FFFFFF" points="323.924,358.63 314.709,363.947 305.493,369.27 296.28,374.591 287.09,369.286 287.094,369.283 
					277.879,363.965 287.094,358.647 287.094,358.647 296.309,353.326 296.309,353.326 296.311,353.321 305.518,358.639 
					314.737,353.321 305.518,348 305.518,348 296.309,342.682 287.094,348.003 277.879,353.326 268.664,358.647 259.448,363.965 
					268.664,369.286 268.666,369.286 277.852,374.591 277.847,374.591 287.062,379.914 296.28,385.23 305.493,379.914 
					314.709,374.591 323.924,369.27 333.137,363.947 				"/>
				<polygon fill="#FFFFFF" points="285.79,382.032 276.603,376.726 276.603,376.721 267.39,371.404 267.39,371.404 
					258.175,366.086 258.175,376.726 267.39,382.047 267.39,382.043 276.579,387.35 276.579,387.354 285.79,392.671 285.79,413.96 
					276.603,408.656 276.603,408.652 267.39,403.33 267.39,392.695 258.175,387.373 258.175,398.008 258.175,398.013 
					258.175,408.652 267.39,413.969 276.579,419.274 276.579,419.278 285.79,424.6 295.007,429.922 295.007,419.92 295.007,419.278 
					295.007,397.994 295.007,387.354 				"/>
				<g>
					<g>
						<polygon fill="#FFFFFF" points="297.553,387.354 297.553,429.922 306.766,424.6 306.766,392.671 315.981,387.354 
							315.981,387.354 325.196,382.032 325.196,403.317 315.981,408.639 315.981,419.278 334.408,408.639 334.408,366.071 						"/>
					</g>
				</g>
			</g>
		</g>
	</g>
</g>
</svg>
