<?xml version="1.0" encoding="utf-8"?>
<!-- Generator: Adobe Illustrator 13.0.1, SVG Export Plug-In . SVG Version: 6.00 Build 14948)  -->
<!DOCTYPE svg PUBLIC "-//W3C//DTD SVG 1.1//EN" "http://www.w3.org/Graphics/SVG/1.1/DTD/svg11.dtd">
<svg version="1.1" id="Livello_1" xmlns="http://www.w3.org/2000/svg" xmlns:xlink="http://www.w3.org/1999/xlink" x="0px" y="0px"
	 width="746.197px" height="225.884px" viewBox="0 0 746.197 225.884" enable-background="new 0 0 746.197 225.884"
	 xml:space="preserve">
<g>
	<path fill="#24456F" d="M270.656,140.059c9.381,0,17.05-3.725,23.011-11.141l12.232,12.604
		c-9.709,10.934-21.153,16.396-34.324,16.396c-13.178,0-24.032-4.154-32.553-12.479c-8.527-8.329-12.789-18.826-12.789-31.513
		c0-12.69,4.345-23.272,13.037-31.754c8.687-8.494,19.313-12.731,31.875-12.731c14.031,0,25.778,5.342,35.244,16.035L294.52,98.933
		c-6.038-7.503-13.544-11.25-22.515-11.25c-7.182,0-13.324,2.34-18.418,7.027c-5.102,4.699-7.649,11.018-7.649,18.979
		c0,7.95,2.407,14.332,7.219,19.15C257.972,137.649,263.802,140.059,270.656,140.059"/>
	<polygon fill="#24456F" points="320.949,156.932 320.949,71.406 340.044,71.406 340.044,139.94 376.507,139.94 376.507,156.932 	
		"/>
	<path fill="#24456F" d="M451.41,156.932l-7.96-18.474h-35.854l-7.96,18.474h-20.313l36.962-85.525h18.468l36.962,85.525H451.41z
		 M425.579,96.855l-10.762,24.84h21.406L425.579,96.855z"/>
	<path fill="#24456F" d="M501.034,88.469c-1.846,1.517-2.756,3.508-2.756,5.994c0,2.491,1.112,4.469,3.353,5.942
		c2.25,1.467,7.434,3.206,15.55,5.197c8.127,1.997,14.423,4.999,18.908,8.986c4.48,4.003,6.727,9.842,6.727,17.514
		c0,7.666-2.873,13.887-8.617,18.66c-5.755,4.769-13.331,7.158-22.717,7.158c-13.532,0-25.734-5.017-36.582-15.057l11.378-13.946
		c9.214,8.075,17.745,12.12,25.573,12.12c3.505,0,6.266-0.764,8.269-2.266c1.998-1.521,2.994-3.558,2.994-6.124
		c0-2.576-1.063-4.614-3.176-6.117c-2.124-1.519-6.337-3.046-12.607-4.593c-9.952-2.362-17.234-5.447-21.847-9.237
		c-4.606-3.792-6.907-9.747-6.907-17.862c0-8.12,2.907-14.383,8.748-18.787c5.826-4.407,13.118-6.611,21.831-6.611
		c5.715,0,11.435,0.979,17.139,2.939c5.714,1.954,10.695,4.732,14.928,8.313l-9.663,13.958c-7.419-5.632-15.091-8.439-23.005-8.439
		C505.373,86.213,502.859,86.959,501.034,88.469"/>
	<polygon fill="#24456F" points="594.588,87.92 594.588,156.932 575.498,156.932 575.498,87.92 551.259,87.92 551.259,71.406 
		618.811,71.406 618.811,87.92 	"/>
	<rect x="632.753" y="71.405" fill="#24456F" width="19.09" height="85.527"/>
	<polygon fill="#24456F" points="720.998,71.406 743.998,71.406 717.317,112.639 746.197,156.932 722.95,156.932 704.719,128.796 
		686.605,156.932 663.596,156.932 692.355,113.128 665.548,71.406 688.446,71.406 704.719,96.726 	"/>
	<polygon fill="#D81D56" points="170.236,41.295 146.377,55.062 122.515,68.841 98.658,82.619 74.866,68.885 74.876,68.875 
		51.018,55.106 74.876,41.34 98.735,27.56 98.742,27.547 122.579,41.316 146.447,27.547 122.579,13.771 98.735,0 74.876,13.78 
		51.018,27.56 27.159,41.34 3.296,55.106 27.159,68.885 27.164,68.885 50.947,82.619 50.934,82.619 74.794,96.402 98.658,110.168 
		122.515,96.402 146.377,82.619 170.236,68.841 194.09,55.062 	"/>
	<polygon fill="#24456F" points="71.501,101.887 47.711,88.146 47.711,88.133 23.86,74.37 0,60.601 0,88.146 23.86,101.926 
		23.86,101.917 47.652,115.656 47.652,115.667 71.501,129.434 71.501,184.556 47.711,170.823 47.711,170.813 23.86,157.027 
		23.86,129.496 0,115.716 0,143.252 0,143.265 0,170.813 23.86,184.578 47.652,198.313 47.652,198.323 71.501,212.101 
		95.362,225.884 95.362,199.986 95.362,198.323 95.362,143.212 95.362,115.667 	"/>
	<polygon fill="#24456F" points="101.957,115.667 101.957,225.884 125.811,212.104 125.811,129.434 149.669,115.667 173.53,101.889 
		173.53,156.997 149.669,170.777 149.669,198.325 197.381,170.777 197.381,60.56 	"/>
</g>
</svg>
