<?xml version="1.0" encoding="utf-8"?>
<!-- Generator: Adobe Illustrator 16.0.3, SVG Export Plug-In . SVG Version: 6.00 Build 0)  -->
<!DOCTYPE svg PUBLIC "-//W3C//DTD SVG 1.1//EN" "http://www.w3.org/Graphics/SVG/1.1/DTD/svg11.dtd">
<svg version="1.1" id="Livello_1" xmlns="http://www.w3.org/2000/svg" xmlns:xlink="http://www.w3.org/1999/xlink" x="0px" y="0px"
	 width="90.709px" height="90.709px" viewBox="65.146 41.396 90.709 90.709" enable-background="new 65.146 41.396 90.709 90.709"
	 xml:space="preserve">
<g id="Layer_1">
</g>
<g id="Livello_2">
</g>
<g id="Livello_4">
</g>
<g id="Livello_3">
	<g>
		<g>
			<g>
				<polygon fill="#FFFFFF" points="138.924,59.63 129.709,64.947 120.493,70.27 111.279,75.591 102.09,70.286 102.094,70.283 
					92.879,64.965 102.094,59.646 102.094,59.646 111.309,54.326 111.309,54.326 111.311,54.32 120.518,59.639 129.737,54.32 
					120.518,49 120.518,49 111.309,43.682 102.094,49.003 92.879,54.326 83.664,59.646 74.448,64.965 83.664,70.286 83.666,70.286 
					92.852,75.591 92.848,75.591 102.063,80.914 111.279,86.23 120.493,80.914 129.709,75.591 138.924,70.27 148.137,64.947 				"/>
				<polygon fill="#FFFFFF" points="100.79,83.032 91.604,77.727 91.604,77.721 82.391,72.404 82.391,72.404 73.175,67.086 
					73.175,77.727 82.391,83.047 82.391,83.043 91.579,88.35 91.579,88.354 100.79,93.671 100.79,114.96 91.604,109.656 
					91.604,109.652 82.391,104.33 82.391,93.695 73.175,88.373 73.175,99.008 73.175,99.014 73.175,109.652 82.391,114.969 
					91.579,120.273 91.579,120.277 100.79,125.6 110.007,130.922 110.007,120.92 110.007,120.277 110.007,98.994 110.007,88.354 
									"/>
				<g>
					<g>
						<polygon fill="#FFFFFF" points="112.553,88.354 112.553,130.922 121.766,125.6 121.766,93.671 130.981,88.354 130.981,88.354 
							140.196,83.032 140.196,104.316 130.981,109.639 130.981,120.277 149.408,109.639 149.408,67.07 						"/>
					</g>
				</g>
			</g>
		</g>
	</g>
</g>
</svg>
